<svg id="b48630ff-c8c7-448a-890d-39fa15c0c4fd" data-name="图层 1" xmlns="http://www.w3.org/2000/svg" viewBox="0 0 180 180"><rect width="180" height="180" fill="#3f51b5"/><path d="M57.49,119.88,35.89,82.44h11l10.83,19.69c2,3.54,3.78,6.73,6.26,11.35h.47c2.13-4.62,3.66-7.81,5.55-11.35l10.6-19.69H91.22l-21.6,37.92,23.14,39.56H81.59L70,139.17c-2.12-3.9-4.25-7.8-6.84-12.52h-.47c-2.24,4.72-4.25,8.62-6.26,12.52L44.93,159.92H34.35Z" transform="translate(0 0)" fill="#fff"/><path d="M107,131.09c0-18.66,13.94-30,29.3-30,16.54,0,26.22,10.75,26.22,26.93a39.55,39.55,0,0,1-.47,5.92H113.56v-7.59h42.68l-2.49,2.72c0-13.55-6.7-20.27-17.2-20.27s-19.79,8-19.79,22.28c0,14.86,9.66,22.41,22.4,22.41a31.22,31.22,0,0,0,17.46-5.43l3.56,6.41A39.3,39.3,0,0,1,138,161.33C120.72,161.33,107,150.23,107,131.09Z" transform="translate(0 0)" fill="#fff"/><path d="M13.14,42.61,15,40.13a11.42,11.42,0,0,0,8.1,3.29c4,0,7.24-2.52,7.24-6.53s-2.79-6.25-7-6.25a10.77,10.77,0,0,0-5.85,1.71l-2-1.26,1-13.8H32.66v3.24h-13L18.94,29a12.28,12.28,0,0,1,5.31-1.17c5.48,0,9.85,2.79,9.85,9S29,46.52,23.48,46.52A14.39,14.39,0,0,1,13.14,42.61Z" transform="translate(0 0)" fill="#fff"/><path d="M54.17,26.24c0-1.58.13-3.51.22-5.09h-.22c-1,1.4-2,2.79-2.92,4.19l-7.74,9.71H62.13v3H39.37V35.59l14.3-18.3h4V46H54.17Z" transform="translate(0 0)" fill="#fff"/></svg>